<?xml version="1.0" encoding="UTF-8"?>
<svg width="942px" height="97px" viewBox="0 0 942 97" version="1.1" xmlns="http://www.w3.org/2000/svg" xmlns:xlink="http://www.w3.org/1999/xlink">
    <title>Group</title>
    <g id="Page-1" stroke="none" stroke-width="1" fill="none" fill-rule="evenodd">
        <g id="Artboard" transform="translate(-67.000000, -487.000000)" fill-rule="nonzero">
            <g id="Group" transform="translate(67.000000, 487.000000)">
                <path d="M33.9306698,96 L38.0023502,77.1851351 L58.4841363,77.1851351 L54.4124559,96 L74.1539365,96 L78.2256169,77.1851351 L97.1034078,77.1851351 L97.1034078,58.2472973 L82.2972973,58.2472973 L85.7520564,42.1378378 L105,42.1378378 L105,23.2 L89.7003525,23.2 L93.6486486,5 L73.907168,5 L69.9588719,23.2 L49.4770858,23.2 L53.4253819,5 L33.6839013,5 L29.7356052,23.2 L7.89659224,23.2 L7.89659224,42.1378378 L25.787309,42.1378378 L22.3325499,58.2472973 L0,58.2472973 L0,77.1851351 L18.2608696,77.1851351 L14.1891892,96 L33.9306698,96 Z M62.5558167,58.2472973 L42.0740306,58.2472973 L45.5287897,42.1378378 L66.0105758,42.1378378 L62.5558167,58.2472973 Z" id="#" fill="#75FBAF"></path>
                <path d="M182.297153,96.020202 L196.547724,39.4368687 L210.306896,96.020202 L235.736794,96.020202 L258.218298,10.0429293 L235.613944,10.0429293 L223.08327,72.6275253 L208.3413,10.0429293 L185.245547,10.0429293 L169.889329,72.6275253 L157.481504,10.0429293 L135,10.0429293 L156.867255,96.020202 L182.297153,96.020202 Z M294.704673,97 C299.536764,97 303.77508,96.020202 307.419622,94.0606061 C311.064165,92.1010101 313.910184,89.5290404 315.95768,86.344697 L315.95768,86.344697 L315.95768,96.020202 L336.964987,96.020202 L336.964987,27.6792929 L315.95768,27.6792929 L315.95768,37.354798 C313.992084,34.1704545 311.187015,31.5984848 307.542472,29.6388889 C303.89793,27.6792929 299.659613,26.6994949 294.827523,26.6994949 C289.176435,26.6994949 284.057695,28.128367 279.471305,30.9861111 C274.884914,33.8438552 271.260846,37.9263468 268.599102,43.2335859 C265.937357,48.5408249 264.606485,54.7053872 264.606485,61.7272727 C264.606485,68.7491582 265.937357,74.934133 268.599102,80.282197 C271.260846,85.6302609 274.884914,89.7535774 279.471305,92.6521465 C284.057695,95.5507155 289.135485,97 294.704673,97 Z M300.970011,78.7512626 C296.793119,78.7512626 293.250951,77.2203283 290.343507,74.1584596 C287.436063,71.0965909 285.982341,66.952862 285.982341,61.7272727 C285.982341,56.5016835 287.436063,52.3987795 290.343507,49.4185606 C293.250951,46.4383418 296.793119,44.9482323 300.970011,44.9482323 C305.146902,44.9482323 308.68907,46.4587542 311.596514,49.479798 C314.503958,52.5008418 315.95768,56.6241582 315.95768,61.8497475 C315.95768,67.0753367 314.503958,71.1986532 311.596514,74.219697 C308.68907,77.2407407 305.146902,78.7512626 300.970011,78.7512626 Z M375.294109,96.020202 L375.294109,45.0707071 L386.596286,45.0707071 L386.596286,27.6792929 L375.294109,27.6792929 L375.294109,27.0669192 C375.294109,23.4743266 376.113107,20.9840067 377.751104,19.5959596 C379.3891,18.2079125 382.214645,17.6363636 386.227736,17.8813131 L386.227736,17.8813131 L386.227736,0.122474747 C385.490638,0.0408249158 384.34404,0 382.787943,0 C373.451362,0 366.367027,2.184133 361.534937,6.55239899 C356.702847,10.920665 354.286802,17.3097643 354.286802,25.719697 L354.286802,25.719697 L354.286802,27.6792929 L346.670117,27.6792929 L346.670117,45.0707071 L354.286802,45.0707071 L354.286802,96.020202 L375.294109,96.020202 Z M419.520018,96.020202 L419.520018,45.0707071 L430.822195,45.0707071 L430.822195,27.6792929 L419.520018,27.6792929 L419.520018,27.0669192 C419.520018,23.4743266 420.339017,20.9840067 421.977013,19.5959596 C423.61501,18.2079125 426.440554,17.6363636 430.453646,17.8813131 L430.453646,17.8813131 L430.453646,0.122474747 C429.716547,0.0408249158 428.56995,0 427.013853,0 C417.677272,0 410.592937,2.184133 405.760846,6.55239899 C400.928756,10.920665 398.512711,17.3097643 398.512711,25.719697 L398.512711,25.719697 L398.512711,27.6792929 L390.896027,27.6792929 L390.896027,45.0707071 L398.512711,45.0707071 L398.512711,96.020202 L419.520018,96.020202 Z M461.657482,96.020202 L461.657482,5.38888889 L440.650175,5.38888889 L440.650175,96.020202 L461.657482,96.020202 Z M507.357589,97 C512.926777,97 517.963617,95.9793771 522.468108,93.9381313 C526.972599,91.8968855 530.719516,89.0799663 533.70886,85.4873737 C536.698204,81.8947811 538.766174,77.8531145 539.912772,73.3623737 L539.912772,73.3623737 L517.554118,73.3623737 C515.506622,77.7714646 511.862079,79.9760101 506.62049,79.9760101 C503.098797,79.9760101 500.129928,78.8533249 497.713883,76.6079545 C495.297838,74.3625842 493.926016,71.1170034 493.598417,66.8712121 L493.598417,66.8712121 L541.14127,66.8712121 C541.386969,64.7483165 541.509819,62.7070707 541.509819,60.7474747 C541.509819,53.8888889 540.056097,47.8876263 537.148653,42.7436869 C534.241209,37.5997475 530.207642,33.6397306 525.047953,30.8636364 C519.888263,28.0875421 513.991475,26.6994949 507.357589,26.6994949 C500.559903,26.6994949 494.540265,28.128367 489.298676,30.9861111 C484.057086,33.8438552 479.98257,37.9263468 477.075126,43.2335859 C474.167682,48.5408249 472.71396,54.7462121 472.71396,61.8497475 C472.71396,68.9532828 474.188156,75.15867 477.13655,80.4659091 C480.084944,85.7731481 484.179936,89.8556397 489.421525,92.7133838 C494.663115,95.5711279 500.641802,97 507.357589,97 Z M520.011113,55.2361111 L493.721267,55.2361111 C494.294565,51.4802189 495.789237,48.5816498 498.205282,46.540404 C500.621327,44.4991582 503.590196,43.4785354 507.111889,43.4785354 C510.797382,43.4785354 513.868625,44.5399832 516.32562,46.6628788 C518.782615,48.7857744 520.011113,51.6435185 520.011113,55.2361111 L520.011113,55.2361111 Z M618.782311,96.020202 C627.791292,96.020202 634.814203,93.9177189 639.851043,89.7127525 C644.887882,85.5077862 647.406302,79.8127104 647.406302,72.6275253 C647.406302,67.6468855 645.891155,63.2173822 642.860862,59.3390152 C639.830568,55.4606481 635.817476,52.9907407 630.821586,51.9292929 C635.244177,50.6228956 638.786345,48.2958754 641.44809,44.9482323 C644.109834,41.6005892 645.440706,37.3956229 645.440706,32.3333333 C645.440706,25.4747475 642.963236,20.0450337 638.008297,16.0441919 C633.053357,12.0433502 626.194246,10.0429293 617.430964,10.0429293 L617.430964,10.0429293 L578.610443,10.0429293 L578.610443,96.020202 L618.782311,96.020202 Z M613.376922,44.8257576 L599.61775,44.8257576 L599.61775,26.8219697 L613.376922,26.8219697 C616.816715,26.8219697 619.457984,27.5976431 621.300731,29.1489899 C623.143477,30.7003367 624.06485,32.9457071 624.06485,35.885101 C624.06485,38.8244949 623.143477,41.0494529 621.300731,42.5599747 C619.457984,44.0704966 616.816715,44.8257576 613.376922,44.8257576 L613.376922,44.8257576 Z M615.096818,79.1186869 L599.61775,79.1186869 L599.61775,60.135101 L614.851119,60.135101 C618.372812,60.135101 621.136931,60.9924242 623.143477,62.7070707 C625.150023,64.4217172 626.153296,66.7895623 626.153296,69.8106061 C626.153296,72.8316498 625.190973,75.1382576 623.266327,76.7304293 C621.341681,78.322601 618.618511,79.1186869 615.096818,79.1186869 L615.096818,79.1186869 Z M690.772264,97 C697.48805,97 703.569112,95.5711279 709.015451,92.7133838 C714.46179,89.8556397 718.761531,85.7527357 721.914675,80.4046717 C725.067819,75.0566077 726.64439,68.871633 726.64439,61.8497475 C726.64439,54.827862 725.088293,48.6428872 721.9761,43.2948232 C718.863906,37.9467593 714.605115,33.8438552 709.199726,30.9861111 C703.794337,28.128367 697.733749,26.6994949 691.017963,26.6994949 C684.302177,26.6994949 678.241589,28.128367 672.8362,30.9861111 C667.430811,33.8438552 663.17202,37.9467593 660.059826,43.2948232 C656.947633,48.6428872 655.391536,54.827862 655.391536,61.8497475 C655.391536,68.9532828 656.927158,75.15867 659.998402,80.4659091 C663.069645,85.7731481 667.287487,89.8556397 672.651926,92.7133838 C678.016365,95.5711279 684.056477,97 690.772264,97 Z M690.772264,78.8737374 C686.759172,78.8737374 683.421754,77.4040404 680.760009,74.4646465 C678.098265,71.5252525 676.767392,67.3202862 676.767392,61.8497475 C676.767392,56.2975589 678.11874,52.0721801 680.821434,49.1736111 C683.524128,46.2750421 686.922972,44.8257576 691.017963,44.8257576 C695.031055,44.8257576 698.409423,46.2954545 701.153067,49.2348485 C703.896712,52.1742424 705.268534,56.3792088 705.268534,61.8497475 C705.268534,67.3202862 703.855762,71.5252525 701.030218,74.4646465 C698.204673,77.4040404 694.785355,78.8737374 690.772264,78.8737374 Z M763.745014,97 C768.577105,97 772.815421,96.020202 776.459963,94.0606061 C780.104506,92.1010101 782.950525,89.5290404 784.998021,86.344697 L784.998021,86.344697 L784.998021,96.020202 L806.005328,96.020202 L806.005328,27.6792929 L784.998021,27.6792929 L784.998021,37.354798 C783.032425,34.1704545 780.227356,31.5984848 776.582813,29.6388889 C772.938271,27.6792929 768.699954,26.6994949 763.867864,26.6994949 C758.216776,26.6994949 753.098036,28.128367 748.511646,30.9861111 C743.925255,33.8438552 740.301187,37.9263468 737.639443,43.2335859 C734.977698,48.5408249 733.646826,54.7053872 733.646826,61.7272727 C733.646826,68.7491582 734.977698,74.934133 737.639443,80.282197 C740.301187,85.6302609 743.925255,89.7535774 748.511646,92.6521465 C753.098036,95.5507155 758.175826,97 763.745014,97 Z M770.010352,78.7512626 C765.83346,78.7512626 762.291292,77.2203283 759.383848,74.1584596 C756.476404,71.0965909 755.022682,66.952862 755.022682,61.7272727 C755.022682,56.5016835 756.476404,52.3987795 759.383848,49.4185606 C762.291292,46.4383418 765.83346,44.9482323 770.010352,44.9482323 C774.187243,44.9482323 777.729411,46.4587542 780.636855,49.479798 C783.544299,52.5008418 784.998021,56.6241582 784.998021,61.8497475 C784.998021,67.0753367 783.544299,71.1986532 780.636855,74.219697 C777.729411,77.2407407 774.187243,78.7512626 770.010352,78.7512626 Z M842.246004,96.020202 L842.246004,64.2992424 C842.246004,58.665404 843.556401,54.7257997 846.177196,52.4804293 C848.797991,50.2350589 852.729183,49.1123737 857.970772,49.1123737 L857.970772,49.1123737 L863.74471,49.1123737 L863.74471,26.9444444 C859.240219,26.9444444 855.145228,28.0263047 851.459735,30.1900253 C847.774243,32.3537458 844.702999,35.3135522 842.246004,39.0694444 L842.246004,39.0694444 L842.246004,27.6792929 L821.238697,27.6792929 L821.238697,96.020202 L842.246004,96.020202 Z M899.862536,97 C904.694626,97 908.932943,96.020202 912.577485,94.0606061 C916.222028,92.1010101 919.027097,89.4882155 920.992693,86.2222222 L920.992693,86.2222222 L920.992693,96.020202 L942,96.020202 L942,5.38888889 L920.992693,5.38888889 L920.992693,37.1098485 C918.863297,33.9255051 915.935378,31.3943603 912.208936,29.5164141 C908.482494,27.638468 904.367027,26.6994949 899.862536,26.6994949 C894.211448,26.6994949 889.092708,28.128367 884.506318,30.9861111 C879.919927,33.8438552 876.295859,37.9263468 873.634115,43.2335859 C870.97237,48.5408249 869.641498,54.7053872 869.641498,61.7272727 C869.641498,68.7491582 870.97237,74.934133 873.634115,80.282197 C876.295859,85.6302609 879.919927,89.7535774 884.506318,92.6521465 C889.092708,95.5507155 894.211448,97 899.862536,97 Z M906.005024,78.7512626 C901.828132,78.7512626 898.285964,77.2203283 895.37852,74.1584596 C892.471076,71.0965909 891.017354,66.952862 891.017354,61.7272727 C891.017354,56.5016835 892.471076,52.3987795 895.37852,49.4185606 C898.285964,46.4383418 901.828132,44.9482323 906.005024,44.9482323 C910.181915,44.9482323 913.724083,46.4587542 916.631527,49.479798 C919.538971,52.5008418 920.992693,56.6241582 920.992693,61.8497475 C920.992693,67.0753367 919.538971,71.1986532 916.631527,74.219697 C913.724083,77.2407407 910.181915,78.7512626 906.005024,78.7512626 Z" id="WaffleBoard" fill="#000000"></path>
            </g>
        </g>
    </g>
</svg>